#!OML:ASF F:\VICON\USERDATA\INSTALL\rory3\rory3.ASF
:FULLY-SPECIFIED
:DEGREES
1413
root 1.56382 17.6764 11.1576 -175.53 -5.67679 177.595
lowerback 5.89342 -0.896326 -5.46875
upperback 0.897646 -1.54662 1.64096
thorax -2.18836 -0.746798 4.89636
lowerneck -18.9203 2.34539 -9.32318
upperneck 35.6867 3.53638 1.65951
head 15.5436 -0.556468 2.70697
rclavicle 1.49089e-016 -1.19271e-014
rhumerus -39.0955 -23.1534 -67.2565
rradius 29.4547
rwrist 20.8247
rhand -21.1231 -1.757
rfingers 7.12502
rthumb 5.25549 -31.6718
lclavicle 1.49089e-016 -1.19271e-014
lhumerus -25.6865 17.3532 70.5623
lradius 31.6124
lwrist -6.75966
lhand -17.5779 27.8672
lfingers 7.12502
lthumb 8.67771 57.6689
rfemur -31.5889 1.91229 14.0302
rtibia 51.56
rfoot -18.4676 -0.68264
rtoes -6.31932
lfemur -5.41024 -0.836031 -24.1325
ltibia 17.8811
lfoot -15.6584 -3.23523
ltoes -8.23683
1414
root 1.55931 17.6744 11.2025 -175.594 -5.45717 177.361
lowerback 5.94128 -0.894031 -5.73704
upperback 0.853923 -1.56392 1.56424
thorax -2.25324 -0.749387 4.97164
lowerneck -18.9844 2.3672 -9.27828
upperneck 35.7138 3.60312 1.52741
head 15.5737 -0.548249 2.6549
rclavicle 2.39039e-014 1.70955e-014
rhumerus -38.9618 -23.081 -67.4589
rradius 29.5507
rwrist 21.1618
rhand -20.8756 -1.59504
rfingers 7.12502
rthumb 5.4945 -31.5038
lclavicle 2.39039e-014 1.70955e-014
lhumerus -25.3721 17.6885 70.423
lradius 30.8427
lwrist -7.2755
lhand -17.448 27.7322
lfingers 7.12502
lthumb 8.80305 57.5286
rfemur -31.3188 1.4284 14.1174
rtibia 52.3026
rfoot -18.5913 -0.570086
rtoes -5.97089
lfemur -5.51928 -0.64952 -24.4295
ltibia 17.9956
lfoot -15.6862 -3.22533
ltoes -8.60518
1415
root 1.5537 17.6717 11.2451 -175.629 -5.15266 177.257
lowerback 5.89461 -0.862566 -5.83978
upperback 0.794787 -1.52554 1.50045
thorax -2.29237 -0.725424 4.96012
lowerneck -19.0269 2.40022 -9.24297
upperneck 35.7414 3.65843 1.47767
head 15.5959 -0.533212 2.63755
rclavicle -2.44008e-014 -1.19271e-015
rhumerus -38.8655 -22.9674 -67.6693
rradius 29.6243
rwrist 21.2991
rhand -20.9294 -1.44724
rfingers 7.12502
rthumb 5.44252 -31.3574
lclavicle -2.44008e-014 -1.19271e-015
lhumerus -25.0515 17.9918 70.2928
lradius 29.9743
lwrist -7.81858
lhand -17.591 27.5226
lfingers 7.12502
lthumb 8.66505 57.3247
rfemur -31.0536 1.04025 14.3255
rtibia 52.9698
rfoot -18.765 -0.466223
rtoes -5.45405
lfemur -5.68907 -0.371378 -24.5934
ltibia 18.1563
lfoot -15.6841 -3.23273
ltoes -8.76941
1416
root 1.55021 17.6706 11.2851 -175.625 -4.81283 177.287
lowerback 5.80805 -0.827932 -5.8723
upperback 0.674732 -1.47308 1.52659
thorax -2.37359 -0.690906 5.00189
lowerneck -18.9593 2.44251 -9.27781
upperneck 35.7718 3.73513 1.38933
head 15.5923 -0.530713 2.61558
rclavicle 9.93923e-016 9.14409e-015
rhumerus -38.8272 -22.5977 -67.9595
rradius 29.7983
rwrist 21.5362
rhand -21.4369 -2.01128
rfingers 7.12502
rthumb 4.95252 -31.9334
lclavicle 9.93923e-016 9.14409e-015
lhumerus -24.9193 18.138 70.2794
lradius 29.2423
lwrist -8.20266
lhand -17.9261 27.4658
lfingers 7.12502
lthumb 8.34166 57.2811
rfemur -30.8069 0.678035 14.7004
rtibia 53.5238
rfoot -18.9818 -0.487164
rtoes -6.21339
lfemur -5.95214 -0.181521 -24.5998
ltibia 18.4129
lfoot -15.7522 -3.13679
ltoes -8.67863
1417
root 1.54773 17.6709 11.3258 -175.6 -4.57615 177.358
lowerback 5.72342 -0.871576 -5.83803
upperback 0.567229 -1.52124 1.56381
thorax -2.43127 -0.708692 5.02432
lowerneck -18.896 2.51035 -9.30428
upperneck 35.7216 3.86893 1.28264
head 15.5473 -0.496355 2.59423
rclavicle -1.27222e-014 7.95139e-015
rhumerus -38.6883 -21.9888 -68.4489
rradius 30.0039
rwrist 21.8486
rhand -22.2505 -2.94063
rfingers 7.12502
rthumb 4.16687 -32.8796
lclavicle -1.27222e-014 7.95139e-015
lhumerus -24.8892 18.3118 70.283
lradius 28.6979
lwrist -8.71
lhand -18.3809 28.5627
lfingers 7.12502
lthumb 7.90273 58.395
rfemur -30.5338 0.295391 15.1148
rtibia 53.9476
rfoot -19.1868 -0.55603
rtoes -5.98136
lfemur -6.31919 0.0806279 -24.5554
ltibia 18.7564
lfoot -15.8517 -3.12886
ltoes -8.93219
1418
root 1.54564 17.676 11.3652 -175.623 -4.37823 177.374
lowerback 5.65188 -0.925611 -5.81677
upperback 0.548193 -1.58805 1.51804
thorax -2.40411 -0.742312 4.96725
lowerneck -19.0214 2.56659 -9.08843
upperneck 35.7006 3.98593 1.04854
head 15.5736 -0.451543 2.47991
rclavicle -4.42296e-015 -9.93923e-015
rhumerus -38.4754 -21.7503 -68.9327
rradius 30.1371
rwrist 22.1182
rhand -22.7115 -3.12069
rfingers 7.12502
rthumb 3.72169 -33.0679
lclavicle -4.42296e-015 -9.93923e-015
lhumerus -24.7014 18.4574 70.2235
lradius 28.1717
lwrist -9.16767
lhand -18.8596 31.4291
lfingers 7.12502
lthumb 7.44067 61.2782
rfemur -30.1745 -0.110626 15.4545
rtibia 54.268
rfoot -19.3479 -0.683215
rtoes -5.54615
lfemur -6.63989 0.328533 -24.5746
ltibia 19.1148
lfoot -15.9777 -3.1187
ltoes -9.06139
1419
root 1.54222 17.6787 11.4043 -175.674 -4.16022 177.325
lowerback 5.63059 -0.935758 -5.84904
upperback 0.537657 -1.60313 1.47037
thorax -2.40166 -0.749225 4.93624
lowerneck -19.2106 2.58323 -8.95834
upperneck 35.7259 4.0618 0.872283
head 15.637 -0.430531 2.39969
rclavicle 1.59028e-015 4.77083e-015
rhumerus -38.2983 -21.7629 -69.1525
rradius 30.2664
rwrist 21.99
rhand -22.3499 -2.625
rfingers 7.12502
rthumb 4.0709 -32.5658
lclavicle 1.59028e-015 4.77083e-015
lhumerus -24.4553 18.6404 70.2284
lradius 27.6572
lwrist -9.7726
lhand -17.9208 28.9725
lfingers 7.12502
lthumb 8.34672 58.7876
rfemur -29.7138 -0.464348 15.6824
rtibia 54.5487
rfoot -19.6164 -0.783416
rtoes -5.50875
lfemur -6.88478 0.547205 -24.6706
ltibia 19.4304
lfoot -16.0893 -3.12971
ltoes -9.02594
1420
root 1.53531 17.675 11.4434 -175.634 -3.9178 177.256
lowerback 5.54503 -0.924671 -5.83847
upperback 0.484995 -1.58203 1.44482
thorax -2.41198 -0.736218 4.90053
lowerneck -19.4031 2.56428 -9.08647
upperneck 35.8036 4.09934 0.894987
head 15.7152 -0.437377 2.44212
rclavicle -1.04859e-014 -1.19271e-015
rhumerus -38.1061 -21.7161 -69.2418
rradius 30.4245
rwrist 21.3075
rhand -21.5873 -2.06487
rfingers 7.12502
rthumb 4.80725 -31.9903
lclavicle -1.04859e-014 -1.19271e-015
lhumerus -24.2423 18.6545 70.3899
lradius 27.2175
lwrist -10.1609
lhand -17.4483 29.5237
lfingers 7.12502
lthumb 8.80273 59.3202
rfemur -29.298 -0.850726 15.8299
rtibia 54.8145
rfoot -20.221 -0.523793
rtoes -5.16058
lfemur -7.16001 0.661589 -24.8042
ltibia 19.6528
lfoot -16.094 -3.08644
ltoes -8.85493
1421
root 1.53112 17.6722 11.479 -175.577 -3.72151 177.08
lowerback 5.45898 -0.914775 -5.96512
upperback 0.404857 -1.5712 1.39749
thorax -2.44621 -0.725125 4.92102
lowerneck -19.5726 2.53607 -9.1964
upperneck 35.8855 4.11215 0.913983
head 15.7926 -0.453708 2.47493
rclavicle -1.2424e-014 -3.97569e-015
rhumerus -37.9979 -21.5872 -69.3917
rradius 30.6272
rwrist 20.8759
rhand -21.3413 -1.9742
rfingers 7.12502
rthumb 5.04484 -31.8941
lclavicle -1.2424e-014 -3.97569e-015
lhumerus -24.1288 18.616 70.6051
lradius 26.828
lwrist -10.4625
lhand -17.4858 30.6434
lfingers 7.12502
lthumb 8.76656 60.4414
rfemur -28.9124 -1.26275 15.8584
rtibia 55.0498
rfoot -20.9478 -0.223729
rtoes -5.35821
lfemur -7.39218 0.788913 -25.0403
ltibia 19.7845
lfoot -16.057 -3.02097
ltoes -9.20974
